<svg width="1920" height="1080" viewBox="0 0 1920 1080" fill="none" xmlns="http://www.w3.org/2000/svg">
<path fill-rule="evenodd" clip-rule="evenodd" d="M754.878 -404.191C724.649 -434.42 675.64 -434.42 645.412 -404.192C615.184 -373.963 615.184 -324.954 645.412 -294.726L1817.71 877.572C1787.56 847.338 1787.59 798.386 1817.79 768.184C1848.02 737.956 1897.02 737.956 1927.25 768.184L2023.66 864.592C2023.63 864.566 2023.61 864.54 2023.58 864.513L754.878 -404.191Z" fill="#5908A1" fill-opacity="0.15"/>
<rect x="115.599" y="265.737" width="1558.91" height="154.808" rx="77.4038" transform="rotate(45 115.599 265.737)" fill="#5908A1" fill-opacity="0.3"/>
<rect x="666.21" y="1035.28" width="154.808" height="154.808" rx="77.4038" transform="rotate(45 666.21 1035.28)" fill="#7F56D8" fill-opacity="0.5"/>
<rect x="607.099" y="-109.729" width="147.067" height="147.067" rx="73.5336" transform="rotate(45 607.099 -109.729)" fill="#5908A1" fill-opacity="0.3"/>
<rect x="306.069" y="-634.069" width="2480.02" height="151.809" rx="75.9045" transform="rotate(45 306.069 -634.069)" fill="#7F56D8" fill-opacity="0.5"/>
<rect x="390.358" y="-116.297" width="2021.79" height="154.808" rx="77.4038" transform="rotate(45 390.358 -116.297)" fill="#7F56D8" fill-opacity="0.5"/>
<rect x="213.023" y="-74.7003" width="2021.79" height="154.808" rx="77.4038" transform="rotate(45 213.023 -74.7003)" fill="#5908A1" fill-opacity="0.15"/>
<rect x="283.081" y="214.288" width="1236.91" height="154.808" rx="77.4038" transform="rotate(45 283.081 214.288)" fill="white"/>
<rect x="320.3" y="689.368" width="422.625" height="154.808" rx="77.4038" transform="rotate(45 320.3 689.368)" fill="#5908A1" fill-opacity="0.3"/>
<path fill-rule="evenodd" clip-rule="evenodd" d="M864.307 -513.693L1306.58 -71.4167C1336.81 -41.1886 1336.81 7.8207 1306.58 38.0488C1276.37 68.2652 1227.38 68.2768 1197.15 38.0835L2023.58 864.513C2053.81 894.741 2102.82 894.741 2133.05 864.513C2163.28 834.285 2163.28 785.276 2133.05 755.048L864.343 -513.657C864.331 -513.669 864.319 -513.681 864.307 -513.693Z" fill="#5908A1" fill-opacity="0.3"/>
<path fill-rule="evenodd" clip-rule="evenodd" d="M422.053 -84.6013C422.07 -84.5849 422.086 -84.5685 422.103 -84.5521L2066.27 1559.62C2096.5 1589.85 2145.51 1589.85 2175.74 1559.62C2205.97 1529.39 2205.97 1480.38 2175.74 1450.15L822.799 97.2136C852.974 127.446 852.957 176.416 822.746 206.626C792.518 236.854 743.509 236.854 713.281 206.626L422.053 -84.6013Z" fill="#5908A1" fill-opacity="0.3"/>
</svg>
