<svg width="112" height="91" viewBox="0 0 112 91" fill="none" xmlns="http://www.w3.org/2000/svg">
<g clip-path="url(#clip0_11:379)">
<rect width="112" height="91" fill="white"/>
<path fill-rule="evenodd" clip-rule="evenodd" d="M90.1908 56.0143C88.9959 54.8336 87.0702 54.838 85.8807 56.0274C84.6869 57.2212 84.6869 59.1568 85.8807 60.3507L89.6983 64.1682C89.6939 64.1639 89.6895 64.1595 89.6851 64.1551L39.5786 14.0486C38.3848 12.8548 38.3848 10.9192 39.5786 9.72536C40.7724 8.53153 42.708 8.53153 43.9019 9.72536L90.1908 56.0143Z" fill="#5908A1"/>
<rect x="60.5459" y="69.4295" width="6.114" height="6.114" rx="3.057" transform="rotate(45 60.5459 69.4295)" fill="#5908A1"/>
<rect x="18.6538" y="36.1837" width="61.568" height="6.114" rx="3.057" transform="rotate(45 18.6538 36.1837)" fill="#5908A1"/>
<rect x="40.3999" y="66.5761" width="6.114" height="6.114" rx="3.057" transform="rotate(45 40.3999 66.5761)" fill="#7F56D8"/>
<rect x="38.0654" y="21.3549" width="5.8083" height="5.8083" rx="2.90415" transform="rotate(45 38.0654 21.3549)" fill="#5908A1"/>
<rect x="26.1763" y="0.646515" width="97.9464" height="5.99558" rx="2.99779" transform="rotate(45 26.1763 0.646515)" fill="#7F56D8"/>
<rect x="29.5054" y="21.0955" width="79.8489" height="6.114" rx="3.057" transform="rotate(45 29.5054 21.0955)" fill="#7F56D8"/>
<rect x="22.5015" y="22.7383" width="79.8489" height="6.114" rx="3.057" transform="rotate(45 22.5015 22.7383)" fill="#5908A1"/>
<rect x="25.2686" y="34.1517" width="48.8509" height="6.114" rx="3.057" transform="rotate(45 25.2686 34.1517)" fill="white"/>
<rect x="26.7383" y="52.9146" width="16.6912" height="6.114" rx="3.057" transform="rotate(45 26.7383 52.9146)" fill="#5908A1"/>
<path fill-rule="evenodd" clip-rule="evenodd" d="M43.8902 9.71396C43.8939 9.71777 43.8977 9.72157 43.9015 9.72537L94.008 59.8319C95.2019 61.0257 97.1374 61.0257 98.3313 59.8319C99.5251 58.6381 99.5251 56.7025 98.3313 55.5086L65.7021 22.8794C66.8846 24.0742 66.8808 26.0012 65.6907 27.1913C64.4969 28.3851 62.5613 28.3851 61.3675 27.1913L43.8902 9.71396Z" fill="#5908A1"/>
<path fill-rule="evenodd" clip-rule="evenodd" d="M35.0683 18.0122L46.5819 29.5258C47.7757 30.7196 47.7757 32.6552 46.5819 33.8491C45.3926 35.0383 43.4673 35.0429 42.2724 33.8628L95.6941 87.2845C96.888 88.4783 98.8236 88.4783 100.017 87.2845C101.211 86.0907 101.211 84.1551 100.017 82.9612L35.0821 18.026C35.0775 18.0214 35.0729 18.0168 35.0683 18.0122Z" fill="#5908A1"/>
<g filter="url(#filter0_bd_11:379)">
<rect x="5" y="34" width="101" height="29" rx="10" fill="white" fill-opacity="0.63" shape-rendering="crispEdges"/>
</g>
<path d="M19.0518 52.627H24.4219V55H15.9668V42.2031H19.0518V52.627ZM25.2129 50.1572C25.2129 49.208 25.3975 48.3643 25.7666 47.626C26.1357 46.8818 26.666 46.3105 27.3574 45.9121C28.0488 45.5137 28.8604 45.3145 29.792 45.3145C31.2158 45.3145 32.3379 45.7568 33.1582 46.6416C33.9785 47.5205 34.3887 48.7188 34.3887 50.2363V50.3418C34.3887 51.8242 33.9756 53.002 33.1494 53.875C32.3291 54.7422 31.2158 55.1758 29.8096 55.1758C28.4561 55.1758 27.3691 54.7715 26.5488 53.9629C25.7285 53.1484 25.2861 52.0469 25.2217 50.6582L25.2129 50.1572ZM28.1748 50.3418C28.1748 51.2207 28.3125 51.8652 28.5879 52.2754C28.8633 52.6855 29.2705 52.8906 29.8096 52.8906C30.8643 52.8906 31.4033 52.0791 31.4268 50.4561V50.1572C31.4268 48.4521 30.8818 47.5996 29.792 47.5996C28.8018 47.5996 28.2656 48.335 28.1836 49.8057L28.1748 50.3418ZM35.3467 50.1748C35.3467 49.2139 35.5049 48.3643 35.8213 47.626C36.1377 46.8877 36.5918 46.3193 37.1836 45.9209C37.7754 45.5166 38.4639 45.3145 39.249 45.3145C40.2393 45.3145 41.0127 45.6484 41.5693 46.3164L41.6748 45.4902H44.3643V54.6396C44.3643 55.4775 44.168 56.2041 43.7754 56.8193C43.3887 57.4404 42.8262 57.915 42.0879 58.2432C41.3496 58.5771 40.4941 58.7441 39.5215 58.7441C38.8242 58.7441 38.1475 58.6123 37.4912 58.3486C36.8408 58.085 36.3428 57.7422 35.9971 57.3203L37.2363 55.5801C37.7871 56.2305 38.5137 56.5557 39.416 56.5557C40.7285 56.5557 41.3848 55.8818 41.3848 54.5342V54.2354C40.8164 54.8623 40.0986 55.1758 39.2314 55.1758C38.0713 55.1758 37.1338 54.7334 36.4189 53.8486C35.7041 52.958 35.3467 51.7686 35.3467 50.2803V50.1748ZM38.3174 50.3594C38.3174 51.1387 38.4639 51.7568 38.7568 52.2139C39.0498 52.665 39.46 52.8906 39.9873 52.8906C40.626 52.8906 41.0918 52.6768 41.3848 52.249V48.25C41.0977 47.8164 40.6377 47.5996 40.0049 47.5996C39.4775 47.5996 39.0645 47.8369 38.7656 48.3115C38.4668 48.7803 38.3174 49.4629 38.3174 50.3594Z" fill="#5908A1"/>
<path d="M52.7842 51.5986C52.7842 51.1475 52.623 50.7959 52.3008 50.5439C51.9844 50.292 51.4248 50.0312 50.6221 49.7617C49.8193 49.4922 49.1631 49.2314 48.6533 48.9795C46.9951 48.165 46.166 47.0459 46.166 45.6221C46.166 44.9131 46.3711 44.2891 46.7812 43.75C47.1973 43.2051 47.7832 42.7832 48.5391 42.4844C49.2949 42.1797 50.1445 42.0273 51.0879 42.0273C52.0078 42.0273 52.8311 42.1914 53.5576 42.5195C54.29 42.8477 54.8584 43.3164 55.2627 43.9258C55.667 44.5293 55.8691 45.2207 55.8691 46H52.793C52.793 45.4785 52.6318 45.0742 52.3096 44.7871C51.9932 44.5 51.5625 44.3564 51.0176 44.3564C50.4668 44.3564 50.0303 44.4795 49.708 44.7256C49.3916 44.9658 49.2334 45.2734 49.2334 45.6484C49.2334 45.9766 49.4092 46.2754 49.7607 46.5449C50.1123 46.8086 50.7305 47.084 51.6152 47.3711C52.5 47.6523 53.2266 47.957 53.7949 48.2852C55.1777 49.082 55.8691 50.1807 55.8691 51.5811C55.8691 52.7002 55.4473 53.5791 54.6035 54.2178C53.7598 54.8564 52.6025 55.1758 51.1318 55.1758C50.0947 55.1758 49.1543 54.9912 48.3105 54.6221C47.4727 54.2471 46.8398 53.7373 46.4121 53.0928C45.9902 52.4424 45.7793 51.6953 45.7793 50.8516H48.873C48.873 51.5371 49.0488 52.0439 49.4004 52.3721C49.7578 52.6943 50.335 52.8555 51.1318 52.8555C51.6416 52.8555 52.043 52.7471 52.3359 52.5303C52.6348 52.3076 52.7842 51.9971 52.7842 51.5986ZM60.4395 55H57.4688V45.4902H60.4395V55ZM57.293 43.0381C57.293 42.6162 57.4453 42.2705 57.75 42.001C58.0547 41.7314 58.4502 41.5967 58.9365 41.5967C59.4229 41.5967 59.8184 41.7314 60.123 42.001C60.4277 42.2705 60.5801 42.6162 60.5801 43.0381C60.5801 43.46 60.4277 43.8057 60.123 44.0752C59.8184 44.3447 59.4229 44.4795 58.9365 44.4795C58.4502 44.4795 58.0547 44.3447 57.75 44.0752C57.4453 43.8057 57.293 43.46 57.293 43.0381ZM66.873 55.1758C65.4141 55.1758 64.2334 54.7422 63.3311 53.875C62.4287 53.002 61.9775 51.8682 61.9775 50.4736V50.2275C61.9775 49.2549 62.1562 48.3965 62.5137 47.6523C62.877 46.9082 63.4043 46.334 64.0957 45.9297C64.7871 45.5195 65.6074 45.3145 66.5566 45.3145C67.8926 45.3145 68.9473 45.7305 69.7207 46.5625C70.4941 47.3887 70.8809 48.543 70.8809 50.0254V51.1768H64.9922C65.0977 51.71 65.3291 52.1289 65.6865 52.4336C66.0439 52.7383 66.5068 52.8906 67.0752 52.8906C68.0127 52.8906 68.7451 52.5625 69.2725 51.9062L70.626 53.5059C70.2568 54.0156 69.7324 54.4229 69.0527 54.7275C68.3789 55.0264 67.6523 55.1758 66.873 55.1758ZM66.5391 47.5996C65.6719 47.5996 65.1562 48.1738 64.9922 49.3223H67.9805V49.0938C67.9922 48.6191 67.8721 48.2529 67.6201 47.9951C67.3682 47.7314 67.0078 47.5996 66.5391 47.5996ZM77.833 48.1709L76.8574 48.1006C75.9258 48.1006 75.3281 48.3936 75.0645 48.9795V55H72.1025V45.4902H74.8799L74.9766 46.7119C75.4746 45.7803 76.1689 45.3145 77.0596 45.3145C77.376 45.3145 77.6514 45.3496 77.8857 45.4199L77.833 48.1709ZM84.6533 48.1709L83.6777 48.1006C82.7461 48.1006 82.1484 48.3936 81.8848 48.9795V55H78.9229V45.4902H81.7002L81.7969 46.7119C82.2949 45.7803 82.9893 45.3145 83.8799 45.3145C84.1963 45.3145 84.4717 45.3496 84.7061 45.4199L84.6533 48.1709ZM90.8145 55C90.709 54.8066 90.6152 54.5225 90.5332 54.1475C89.9883 54.833 89.2266 55.1758 88.248 55.1758C87.3516 55.1758 86.5898 54.9062 85.9629 54.3672C85.3359 53.8223 85.0225 53.1396 85.0225 52.3193C85.0225 51.2881 85.4033 50.5088 86.165 49.9814C86.9268 49.4541 88.0342 49.1904 89.4873 49.1904H90.4014V48.6895C90.4014 47.8164 90.0234 47.3799 89.2676 47.3799C88.5645 47.3799 88.2129 47.7256 88.2129 48.417H85.251C85.251 47.4971 85.6406 46.75 86.4199 46.1758C87.2051 45.6016 88.2041 45.3145 89.417 45.3145C90.6299 45.3145 91.5879 45.6104 92.291 46.2021C92.9941 46.7939 93.3545 47.6055 93.3721 48.6367V52.8467C93.3838 53.7197 93.5186 54.3877 93.7764 54.8506V55H90.8145ZM88.96 53.0664C89.3291 53.0664 89.6338 52.9873 89.874 52.8291C90.1201 52.6709 90.2959 52.4922 90.4014 52.293V50.7725H89.54C88.5088 50.7725 87.9932 51.2354 87.9932 52.1611C87.9932 52.4307 88.084 52.6504 88.2656 52.8203C88.4473 52.9844 88.6787 53.0664 88.96 53.0664Z" fill="#7F56D8"/>
</g>
<defs>
<filter id="filter0_bd_11:379" x="1" y="31" width="109" height="40" filterUnits="userSpaceOnUse" color-interpolation-filters="sRGB">
<feFlood flood-opacity="0" result="BackgroundImageFix"/>
<feGaussianBlur in="BackgroundImage" stdDeviation="1.5"/>
<feComposite in2="SourceAlpha" operator="in" result="effect1_backgroundBlur_11:379"/>
<feColorMatrix in="SourceAlpha" type="matrix" values="0 0 0 0 0 0 0 0 0 0 0 0 0 0 0 0 0 0 127 0" result="hardAlpha"/>
<feOffset dy="4"/>
<feGaussianBlur stdDeviation="2"/>
<feComposite in2="hardAlpha" operator="out"/>
<feColorMatrix type="matrix" values="0 0 0 0 0.675 0 0 0 0 0.675 0 0 0 0 0.675 0 0 0 0.25 0"/>
<feBlend mode="normal" in2="effect1_backgroundBlur_11:379" result="effect2_dropShadow_11:379"/>
<feBlend mode="normal" in="SourceGraphic" in2="effect2_dropShadow_11:379" result="shape"/>
</filter>
<clipPath id="clip0_11:379">
<rect width="112" height="91" fill="white"/>
</clipPath>
</defs>
</svg>
